<?xml version="1.0" encoding="utf-8"?>
<!-- Generator: Adobe Illustrator 16.0.0, SVG Export Plug-In . SVG Version: 6.00 Build 0)  -->
<!DOCTYPE svg PUBLIC "-//W3C//DTD SVG 1.1//EN" "http://www.w3.org/Graphics/SVG/1.1/DTD/svg11.dtd">
<svg version="1.1" id="Layer_1" xmlns="http://www.w3.org/2000/svg" xmlns:xlink="http://www.w3.org/1999/xlink" x="0px" y="0px"
	 width="936px" height="936px" viewBox="0 0 936 936" enable-background="new 0 0 936 936" xml:space="preserve">
<rect x="21" y="21" width="894" height="894"/>
<rect x="14" y="14" fill="none" stroke="#FFFFFF" stroke-width="28" stroke-miterlimit="10" width="908" height="908"/>
<path fill="#FFFFFF" d="M546.059,856.051c-80.094,0-167.562-29.682-206.558-79.188v60.386H99.218v-270.2h236.071
	c0,74.224,55.854,109.87,128.577,109.87c40.034,0,66.399-23.765,66.399-56.427c0-89.089-431.046-19.804-431.046-308.806
	c0-129.649,146.48-239.543,327.76-239.543c80.096,0,146.494,31.685,182.307,79.211l1.072-60.386H828.5v260.3H613.507
	c0-74.225-52.681-109.869-125.4-109.869c-40.059,0-66.401,23.763-66.401,56.425c0,89.064,431.036,29.705,431.036,318.707
	C852.741,746.182,727.339,856.051,546.059,856.051z"/>
</svg>
